<svg width="26" height="28" viewBox="0 0 26 28" fill="none" xmlns="http://www.w3.org/2000/svg">
<path d="M10.8326 24.819C10.8325 24.6326 10.7914 24.4485 10.7124 24.2797C10.6333 24.1109 10.5181 23.9616 10.375 23.8423C10.2319 23.723 10.0644 23.6366 9.88421 23.5892C9.70406 23.5419 9.51571 23.5347 9.3325 23.5683C7.66712 23.8737 5.56569 23.9195 5.0076 22.3493C4.52039 21.133 3.71343 20.0712 2.67225 19.2765C2.59772 19.2359 2.5267 19.1891 2.45995 19.1366C2.36877 18.8963 2.20701 18.6892 1.99597 18.5427C1.78492 18.3962 1.53449 18.3171 1.27766 18.3159H1.2713C0.935234 18.3159 0.612838 18.4491 0.374608 18.6863C0.136379 18.9236 0.00169901 19.2456 1.86739e-05 19.5819C-0.00506645 20.6189 1.02976 21.2844 1.45055 21.5083C1.94633 22.0069 2.34471 22.5938 2.62522 23.2387C3.08923 24.5404 4.43425 26.5164 8.30276 26.2619L8.30657 26.3866L8.31166 26.7276C8.31166 27.0651 8.4456 27.3887 8.68401 27.6273C8.92242 27.8659 9.24578 28 9.58294 28C9.9201 28 10.2435 27.8659 10.4819 27.6273C10.7203 27.3887 10.8542 27.0651 10.8542 26.7276L10.8479 26.323C10.8415 26.0812 10.8326 25.7326 10.8326 24.819ZM24.3934 5.57296C24.4386 5.39642 24.4768 5.21814 24.5078 5.03856C24.7135 3.62062 24.5343 2.17342 23.9891 0.848599C23.9204 0.676001 23.8148 0.520522 23.6798 0.393046C23.5447 0.265569 23.3834 0.169177 23.2073 0.110616C22.7547 -0.0420697 21.0842 -0.343624 17.8882 1.7011C15.2319 1.0755 12.4668 1.0755 9.8105 1.7011C6.62721 -0.31436 4.96565 -0.0395249 4.51688 0.104254C4.33625 0.160363 4.17046 0.25622 4.03165 0.384798C3.89285 0.513375 3.78455 0.671414 3.7147 0.847327C3.15782 2.19768 2.98023 3.67468 3.20111 5.11872C3.23289 5.28031 3.26594 5.43173 3.30154 5.56914C2.24791 6.97339 1.68665 8.68635 1.70481 10.4424C1.70164 10.8337 1.71989 11.2249 1.75947 11.6142C2.18408 17.471 5.99793 19.2282 8.65491 19.8326C8.59722 19.9999 8.54717 20.1697 8.50489 20.3415C8.42414 20.6692 8.47675 21.0155 8.65115 21.3044C8.82555 21.5932 9.10745 21.8009 9.43484 21.8817C9.76222 21.9626 10.1083 21.9099 10.3969 21.7354C10.6855 21.5608 10.893 21.2787 10.9737 20.951C11.0546 20.527 11.2621 20.1375 11.5687 19.8338C11.7536 19.6713 11.8875 19.4586 11.954 19.2214C12.0205 18.9842 12.0167 18.7328 11.9432 18.4977C11.8697 18.2626 11.7296 18.0539 11.5399 17.897C11.3502 17.74 11.1191 17.6416 10.8746 17.6135C6.48355 17.1109 4.57663 15.3207 4.28932 11.3801C4.25786 11.0681 4.24385 10.7546 4.24737 10.4411C4.22718 9.18978 4.64044 7.97005 5.41695 6.98912C5.49463 6.88707 5.57737 6.78898 5.66485 6.6952C5.82062 6.52081 5.92534 6.30681 5.9675 6.07673C6.00967 5.84664 5.98764 5.60938 5.90385 5.39101C5.81825 5.16165 5.75233 4.9254 5.7068 4.68484C5.60328 3.99958 5.63743 3.30054 5.80723 2.62866C6.91217 2.94113 7.95206 3.44968 8.87738 4.13008C9.03029 4.23199 9.20329 4.29985 9.38468 4.32904C9.56606 4.35824 9.7516 4.3481 9.92873 4.2993C12.4982 3.60136 15.2071 3.6018 17.7764 4.30058C17.9545 4.34937 18.141 4.35893 18.3232 4.32862C18.5053 4.29831 18.6788 4.22884 18.8315 4.12499C19.7529 3.44199 20.7887 2.92922 21.8902 2.61085C22.0588 3.26631 22.0964 3.94864 22.0008 4.61867C21.9547 4.88256 21.8828 5.14125 21.786 5.39101C21.7022 5.60938 21.6802 5.84664 21.7223 6.07673C21.7645 6.30681 21.8692 6.52081 22.025 6.6952C22.1241 6.8059 22.222 6.92423 22.3097 7.0362C23.0806 8.00063 23.4867 9.20641 23.4564 10.4411C23.4586 10.7713 23.4424 11.1013 23.4081 11.4297C23.1284 15.3181 21.2152 17.1097 16.8038 17.6135C16.559 17.6413 16.3275 17.7397 16.1376 17.8968C15.9476 18.0538 15.8073 18.2627 15.7338 18.498C15.6603 18.7334 15.6566 18.9851 15.7234 19.2224C15.7901 19.4598 15.9243 19.6727 16.1097 19.8351C16.4256 20.1468 16.6333 20.5518 16.7021 20.9904C16.7884 21.3313 16.8282 21.6823 16.8203 22.0338V25.0023C16.8076 25.8268 16.8076 26.4439 16.8076 26.7276C16.8076 27.0651 16.9416 27.3887 17.18 27.6273C17.4184 27.8659 17.7418 28 18.0789 28C18.4161 28 18.7394 27.8659 18.9778 27.6273C19.2163 27.3887 19.3502 27.0651 19.3502 26.7276C19.3502 26.4515 19.3502 25.8471 19.3629 25.0226V22.0325C19.373 21.4701 19.3067 20.909 19.1659 20.3644C19.1257 20.1856 19.0765 20.0089 19.0184 19.8351C20.9523 19.5134 22.7093 18.5153 23.9769 17.0185C25.2444 15.5218 25.9403 13.6234 25.9405 11.6613C25.9825 11.256 26.002 10.8486 25.999 10.4411C26.0271 8.68367 25.4613 6.96825 24.3934 5.57296Z" fill="black" fill-opacity="0.4"/>
</svg>
