<svg width="36" height="37" viewBox="0 0 36 37" fill="none" xmlns="http://www.w3.org/2000/svg">
<path d="M0.0799999 36.52V35.72C1.14667 35.6133 2.05333 35.2933 2.8 34.76C3.54667 34.2533 4.12 33.3733 4.52 32.12C4.92 30.8667 5.12 29.1067 5.12 26.84V4.92C5.12 3.93333 5.04 3.21333 4.88 2.76C4.74667 2.28 4.46667 1.96 4.04 1.8C3.61333 1.61333 2.97333 1.50667 2.12 1.48V0.68C2.78667 0.706666 3.65333 0.733332 4.72 0.759999C5.81333 0.786665 6.96 0.799998 8.16 0.799998C9.36 0.799998 10.52 0.786665 11.64 0.759999C12.7867 0.733332 13.7333 0.706666 14.48 0.68V1.48C13.6533 1.50667 13.0133 1.61333 12.56 1.8C12.1333 1.96 11.84 2.28 11.68 2.76C11.5467 3.21333 11.48 3.93333 11.48 4.92V19.56C11.48 20.6533 11.48 21.84 11.48 23.12C11.48 24.3733 11.4267 25.6 11.32 26.8C11.24 28 11.0667 29.0667 10.8 30C10.2667 31.84 9.10667 33.3867 7.32 34.64C5.56 35.8933 3.14667 36.52 0.0799999 36.52ZM21.23 29.28C20.03 29.28 19.03 29.0533 18.23 28.6C17.43 28.1467 16.8433 27.5467 16.47 26.8C16.0967 26.0267 15.91 25.1867 15.91 24.28C15.91 23.1333 16.1633 22.2 16.67 21.48C17.2033 20.76 17.8833 20.1733 18.71 19.72C19.5367 19.2667 20.4033 18.8933 21.31 18.6C22.2433 18.3067 23.1233 18.0267 23.95 17.76C24.8033 17.4667 25.4833 17.1333 25.99 16.76C26.5233 16.36 26.79 15.8533 26.79 15.24V12.12C26.79 11.4267 26.67 10.8133 26.43 10.28C26.2167 9.72 25.87 9.29333 25.39 9C24.9367 8.70667 24.3367 8.56 23.59 8.56C23.0567 8.56 22.5233 8.64 21.99 8.8C21.4567 8.93333 21.0167 9.17333 20.67 9.52C21.4167 9.78667 21.99 10.2 22.39 10.76C22.8167 11.2933 23.03 11.9067 23.03 12.6C23.03 13.5067 22.71 14.2267 22.07 14.76C21.4567 15.2933 20.7233 15.56 19.87 15.56C18.91 15.56 18.1767 15.2667 17.67 14.68C17.19 14.0667 16.95 13.3333 16.95 12.48C16.95 11.7067 17.1367 11.0667 17.51 10.56C17.91 10.0533 18.4567 9.57333 19.15 9.12C19.8967 8.69333 20.79 8.36 21.83 8.12C22.8967 7.88 24.0433 7.76 25.27 7.76C26.4967 7.76 27.6033 7.89333 28.59 8.16C29.5767 8.4 30.4033 8.85333 31.07 9.52C31.6833 10.1333 32.0833 10.8933 32.27 11.8C32.4567 12.68 32.55 13.8 32.55 15.16V26.04C32.55 26.7067 32.6167 27.1733 32.75 27.44C32.8833 27.68 33.11 27.8 33.43 27.8C33.67 27.8 33.8967 27.7333 34.11 27.6C34.35 27.4667 34.6033 27.3067 34.87 27.12L35.27 27.8C34.71 28.28 34.0567 28.6533 33.31 28.92C32.59 29.16 31.7767 29.28 30.87 29.28C29.8833 29.28 29.0967 29.1467 28.51 28.88C27.9233 28.5867 27.4967 28.2 27.23 27.72C26.99 27.24 26.87 26.68 26.87 26.04C26.23 27.0533 25.4567 27.8533 24.55 28.44C23.6433 29 22.5367 29.28 21.23 29.28ZM24.07 26.72C24.6033 26.72 25.0833 26.6 25.51 26.36C25.9633 26.0933 26.39 25.6667 26.79 25.08V16.88C26.55 17.28 26.2167 17.64 25.79 17.96C25.3633 18.28 24.91 18.6133 24.43 18.96C23.95 19.28 23.4833 19.64 23.03 20.04C22.6033 20.44 22.2567 20.9333 21.99 21.52C21.7233 22.1067 21.59 22.8133 21.59 23.64C21.59 24.68 21.8167 25.4533 22.27 25.96C22.7233 26.4667 23.3233 26.72 24.07 26.72Z" fill="black"/>
</svg>
