<svg xmlns="http://www.w3.org/2000/svg" width="26" height="26" fill="none" viewBox="0 0 26 26"><path fill="#000" fill-rule="evenodd" d="M3.4878 0C2.56278 0 1.67564 0.367464 1.02155 1.02155C0.367464 1.67564 0 2.56278 0 3.4878C0 4.41283 0.367464 5.29997 1.02155 5.95406C1.67564 6.60815 2.56278 6.97561 3.4878 6.97561C4.41283 6.97561 5.29997 6.60815 5.95406 5.95406C6.60815 5.29997 6.97561 4.41283 6.97561 3.4878C6.97561 2.56278 6.60815 1.67564 5.95406 1.02155C5.29997 0.367464 4.41283 0 3.4878 0ZM1.90244 3.4878C1.90244 3.06734 2.06947 2.6641 2.36678 2.36678C2.6641 2.06947 3.06734 1.90244 3.4878 1.90244C3.90827 1.90244 4.31151 2.06947 4.60883 2.36678C4.90614 2.6641 5.07317 3.06734 5.07317 3.4878C5.07317 3.90827 4.90614 4.31151 4.60883 4.60883C4.31151 4.90614 3.90827 5.07317 3.4878 5.07317C3.06734 5.07317 2.6641 4.90614 2.36678 4.60883C2.06947 4.31151 1.90244 3.90827 1.90244 3.4878ZM0 8.56098C0 8.3087 0.100217 8.06675 0.278606 7.88836C0.456994 7.70997 0.69894 7.60976 0.951219 7.60976H6.02439C6.27667 7.60976 6.51862 7.70997 6.697 7.88836C6.87539 8.06675 6.97561 8.3087 6.97561 8.56098V25.0488C6.97561 25.3011 6.87539 25.543 6.697 25.7214C6.51862 25.8998 6.27667 26 6.02439 26H0.951219C0.69894 26 0.456994 25.8998 0.278606 25.7214C0.100217 25.543 0 25.3011 0 25.0488V8.56098ZM1.90244 9.51219V24.0976H5.07317V9.51219H1.90244ZM8.87805 8.56098C8.87805 8.3087 8.97827 8.06675 9.15666 7.88836C9.33504 7.70997 9.57699 7.60976 9.82927 7.60976H14.9024C15.1547 7.60976 15.3967 7.70997 15.5751 7.88836C15.7534 8.06675 15.8537 8.3087 15.8537 8.56098V9.11141L16.4054 8.87424C17.3566 8.46773 18.3658 8.21308 19.396 8.11961C22.9155 7.8 26 10.5649 26 14.1161V25.0488C26 25.3011 25.8998 25.543 25.7214 25.7214C25.543 25.8998 25.3011 26 25.0488 26H19.9756C19.7233 26 19.4814 25.8998 19.303 25.7214C19.1246 25.543 19.0244 25.3011 19.0244 25.0488V16.1707C19.0244 15.7503 18.8574 15.347 18.56 15.0497C18.2627 14.7524 17.8595 14.5854 17.439 14.5854C17.0186 14.5854 16.6153 14.7524 16.318 15.0497C16.0207 15.347 15.8537 15.7503 15.8537 16.1707V25.0488C15.8537 25.3011 15.7534 25.543 15.5751 25.7214C15.3967 25.8998 15.1547 26 14.9024 26H9.82927C9.57699 26 9.33504 25.8998 9.15666 25.7214C8.97827 25.543 8.87805 25.3011 8.87805 25.0488V8.56098ZM10.7805 9.51219V24.0976H13.9512V16.1707C13.9512 15.2457 14.3187 14.3586 14.9728 13.7045C15.6269 13.0504 16.514 12.6829 17.439 12.6829C18.364 12.6829 19.2512 13.0504 19.9053 13.7045C20.5594 14.3586 20.9268 15.2457 20.9268 16.1707V24.0976H24.0976V14.1161C24.0976 11.7013 21.9909 9.79376 19.5698 10.0144C18.738 10.0901 17.9232 10.2955 17.1549 10.6232L15.2779 11.4286C15.1331 11.4908 14.9751 11.516 14.8182 11.5021C14.6612 11.4881 14.5102 11.4354 14.3787 11.3486C14.2471 11.2618 14.1392 11.1438 14.0646 11.005C13.99 10.8662 13.951 10.711 13.9512 10.5535V9.51219H10.7805Z" clip-rule="evenodd"/></svg>