<svg xmlns="http://www.w3.org/2000/svg" width="29" height="26" fill="none" viewBox="0 0 29 26"><path fill="#000" fill-opacity=".4" d="M29 11.5543C28.9998 10.8161 28.7865 10.0935 28.3854 9.47249C27.9843 8.85149 27.4124 8.35823 26.7376 8.05144C26.0628 7.74464 25.3137 7.63723 24.5793 7.74197C23.845 7.84672 23.1563 8.15922 22.5954 8.64227C20.569 7.57089 18.1482 6.92324 15.6197 6.77276L16.2476 3.02049L18.3913 3.34792C18.5001 4.02081 18.8444 4.63378 19.3634 5.07849C19.8825 5.5232 20.5428 5.77101 21.2277 5.77813C21.9126 5.78524 22.5779 5.55121 23.1062 5.11738C23.6344 4.68356 23.9915 4.07788 24.1144 3.4074C24.2373 2.73691 24.118 2.0448 23.7776 1.45337C23.4372 0.861948 22.8977 0.409299 22.2543 0.175428C21.611 -0.0584427 20.9053 -0.0584771 20.2619 0.175331C19.6186 0.409139 19.079 0.861736 18.7385 1.45313L15.5931 0.971603C15.3414 0.932995 15.0846 0.994615 14.8783 1.14311C14.672 1.2916 14.5329 1.51501 14.491 1.76491L13.6598 6.75831C11.0176 6.87147 8.4795 7.52634 6.36962 8.64227C5.59911 7.99459 4.60498 7.67171 3.59883 7.74235C2.59269 7.813 1.65398 8.2716 0.982512 9.02054C0.311045 9.76948 -0.0401577 10.7496 0.0036579 11.7523C0.0474735 12.755 0.482847 13.7011 1.21711 14.3893C1.02893 15.0327 0.933217 15.6994 0.932809 16.3695C0.932809 19.0095 2.38456 21.4677 5.03522 23.2902C7.57215 25.037 10.9269 26 14.4825 26C18.0381 26 21.3928 25.037 23.9298 23.2902C26.5804 21.4677 28.0322 19.0095 28.0322 16.3695C28.0318 15.6994 27.936 15.0327 27.7479 14.3893C28.1414 14.0279 28.4557 13.5896 28.6712 13.1018C28.8867 12.614 28.9986 12.0871 29 11.5543ZM21.2573 1.92382C21.4487 1.92382 21.6359 1.9803 21.795 2.08612C21.9542 2.19194 22.0782 2.34235 22.1515 2.51832C22.2247 2.69429 22.2439 2.88793 22.2066 3.07474C22.1692 3.26156 22.077 3.43316 21.9417 3.56784C21.8063 3.70253 21.6339 3.79425 21.4461 3.83141C21.2584 3.86857 21.0638 3.84949 20.887 3.7766C20.7101 3.70371 20.5589 3.58028 20.4526 3.4219C20.3463 3.26353 20.2895 3.07734 20.2895 2.88686C20.2895 2.63145 20.3915 2.38649 20.573 2.20589C20.7545 2.02528 21.0006 1.92382 21.2573 1.92382ZM26.1122 13.2131C25.9107 13.3319 25.7594 13.5194 25.6862 13.7407C25.613 13.9621 25.6229 14.2023 25.7142 14.4169C25.9656 15.0376 26.0954 15.7004 26.0965 16.3695C26.0965 18.3594 24.9363 20.2542 22.8301 21.706C20.6125 23.2312 17.6485 24.0739 14.4825 24.0739C11.3165 24.0739 8.35247 23.2312 6.13492 21.706C4.02867 20.2542 2.86848 18.3594 2.86848 16.3695C2.8701 15.7026 2.99901 15.042 3.24835 14.423C3.33982 14.2086 3.35014 13.9686 3.2774 13.7472C3.20467 13.5259 3.05381 13.3383 2.85275 13.2192C2.60656 13.0731 2.39604 12.8745 2.23639 12.6376C2.07674 12.4007 1.97195 12.1316 1.92959 11.8495C1.88722 11.5674 1.90833 11.2795 1.99141 11.0065C2.07448 10.7336 2.21744 10.4824 2.40995 10.2711C2.60247 10.0598 2.83974 9.89366 3.10463 9.78473C3.36952 9.67579 3.65542 9.62674 3.94168 9.64114C4.22794 9.65553 4.50741 9.733 4.75991 9.86796C5.01242 10.0029 5.23165 10.192 5.40178 10.4215C5.5422 10.6134 5.74892 10.747 5.98226 10.7965C6.21559 10.8461 6.45909 10.8081 6.66602 10.69L6.70957 10.6635C8.8509 9.37539 11.6092 8.66515 14.4825 8.66515C17.3533 8.66515 20.1117 9.37539 22.253 10.6635L22.3038 10.6936C22.5104 10.8093 22.7526 10.8455 22.9843 10.7954C23.216 10.7452 23.4211 10.6122 23.5608 10.4215C23.7299 10.1901 23.9487 9.99902 24.2013 9.86226C24.4539 9.72551 24.7339 9.64647 25.0211 9.6309C25.3082 9.61532 25.5952 9.66361 25.8612 9.77224C26.1273 9.88087 26.3657 10.0471 26.559 10.2589C26.7524 10.4707 26.8959 10.7227 26.9792 10.9966C27.0624 11.2705 27.0833 11.5594 27.0403 11.8423C26.9973 12.1252 26.8914 12.3951 26.7305 12.6322C26.5695 12.8693 26.3575 13.0678 26.1098 13.2131H26.1122ZM9.64332 16.3695C9.26048 16.3695 8.88624 16.2566 8.56792 16.0449C8.2496 15.8333 8.0015 15.5325 7.85499 15.1805C7.70849 14.8286 7.67015 14.4413 7.74484 14.0677C7.81953 13.694 8.00389 13.3508 8.27459 13.0815C8.5453 12.8121 8.8902 12.6287 9.26569 12.5543C9.64117 12.48 10.0304 12.5182 10.3841 12.664C10.7378 12.8097 11.0401 13.0566 11.2528 13.3734C11.4655 13.6901 11.579 14.0625 11.579 14.4434C11.579 14.9543 11.375 15.4442 11.012 15.8054C10.649 16.1666 10.1567 16.3695 9.64332 16.3695ZM21.2573 14.4434C21.2573 14.8244 21.1438 15.1968 20.9311 15.5135C20.7184 15.8303 20.4161 16.0771 20.0624 16.2229C19.7087 16.3687 19.3195 16.4068 18.944 16.3325C18.5685 16.2582 18.2236 16.0748 17.9529 15.8054C17.6822 15.536 17.4979 15.1928 17.4232 14.8192C17.3485 14.4456 17.3868 14.0583 17.5333 13.7063C17.6798 13.3544 17.9279 13.0536 18.2463 12.8419C18.5646 12.6303 18.9388 12.5173 19.3217 12.5173C19.835 12.5173 20.3274 12.7203 20.6904 13.0815C21.0534 13.4427 21.2573 13.9326 21.2573 14.4434ZM19.2091 19.7703C19.2688 19.882 19.3057 20.0044 19.3178 20.1304C19.3298 20.2563 19.3169 20.3834 19.2796 20.5044C19.2423 20.6253 19.1814 20.7378 19.1004 20.8353C19.0194 20.9329 18.9199 21.0136 18.8075 21.0728C17.4757 21.7771 15.9906 22.1453 14.4825 22.1453C12.9743 22.1453 11.4892 21.7771 10.1575 21.0728C10.0452 21.0135 9.94567 20.9328 9.86469 20.8353C9.78372 20.7377 9.72285 20.6253 9.68555 20.5043C9.64825 20.3834 9.63526 20.2563 9.64732 20.1304C9.65938 20.0044 9.69625 19.8821 9.75583 19.7703C9.8154 19.6585 9.89652 19.5595 9.99455 19.479C10.0926 19.3984 10.2056 19.3378 10.3271 19.3007C10.4487 19.2636 10.5764 19.2507 10.703 19.2627C10.8295 19.2747 10.9525 19.3113 11.0648 19.3706C12.1171 19.9273 13.2907 20.2184 14.4825 20.2184C15.6743 20.2184 16.8478 19.9273 17.9002 19.3706C18.0125 19.3113 18.1354 19.2746 18.262 19.2625C18.3886 19.2505 18.5163 19.2634 18.6379 19.3006C18.7594 19.3377 18.8725 19.3983 18.9705 19.4789C19.0685 19.5595 19.1496 19.6585 19.2091 19.7703Z"/></svg>