<svg width="105" height="53" viewBox="0 0 105 53" fill="none" xmlns="http://www.w3.org/2000/svg">
<rect width="105" height="53" rx="26.5" fill="white"/>
<path d="M30 20C29.7167 20 29.479 19.904 29.287 19.712C29.095 19.52 28.9993 19.2827 29 19V17C29 16.7167 29.096 16.479 29.288 16.287C29.48 16.095 29.7173 15.9993 30 16C30.2833 16 30.521 16.096 30.713 16.288C30.905 16.48 31.0007 16.7173 31 17V19C31 19.2833 30.904 19.521 30.712 19.713C30.52 19.905 30.2827 20.0007 30 20ZM34.95 22.05C34.7667 21.8667 34.675 21.6333 34.675 21.35C34.675 21.0667 34.7667 20.8333 34.95 20.65L36.35 19.225C36.55 19.025 36.7873 18.925 37.062 18.925C37.3367 18.925 37.5743 19.025 37.775 19.225C37.9583 19.4083 38.05 19.6417 38.05 19.925C38.05 20.2083 37.9583 20.4417 37.775 20.625L36.35 22.05C36.1667 22.2333 35.9333 22.325 35.65 22.325C35.3667 22.325 35.1333 22.2333 34.95 22.05ZM38 28C37.7167 28 37.479 27.904 37.287 27.712C37.095 27.52 36.9993 27.2827 37 27C37 26.7167 37.096 26.479 37.288 26.287C37.48 26.095 37.7173 25.9993 38 26H40C40.2833 26 40.521 26.096 40.713 26.288C40.905 26.48 41.0007 26.7173 41 27C41 27.2833 40.904 27.521 40.712 27.713C40.52 27.905 40.2827 28.0007 40 28H38ZM36.35 34.775L34.95 33.35C34.7667 33.1667 34.675 32.9333 34.675 32.65C34.675 32.3667 34.7667 32.1333 34.95 31.95C35.1333 31.7667 35.3667 31.675 35.65 31.675C35.9333 31.675 36.1667 31.7667 36.35 31.95L37.775 33.35C37.975 33.55 38.075 33.7873 38.075 34.062C38.075 34.3367 37.975 34.5743 37.775 34.775C37.575 34.975 37.3377 35.075 37.063 35.075C36.7883 35.075 36.5507 34.975 36.35 34.775ZM23.65 22.05L22.225 20.625C22.0417 20.4417 21.95 20.2083 21.95 19.925C21.95 19.6417 22.0417 19.4083 22.225 19.225C22.425 19.025 22.6627 18.925 22.938 18.925C23.2133 18.925 23.4507 19.025 23.65 19.225L25.05 20.65C25.2333 20.8333 25.325 21.0667 25.325 21.35C25.325 21.6333 25.2333 21.8667 25.05 22.05C24.8667 22.2333 24.6333 22.325 24.35 22.325C24.0667 22.325 23.8333 22.2333 23.65 22.05ZM24 34H28.5C28.9167 34 29.271 33.854 29.563 33.562C29.855 33.27 30.0007 32.916 30 32.5C30 32.0833 29.8583 31.729 29.575 31.437C29.2917 31.145 28.9417 30.9993 28.525 31H27.25L26.75 29.8C26.5167 29.25 26.15 28.8123 25.65 28.487C25.15 28.1617 24.6 27.9993 24 28C23.1667 28 22.4583 28.2917 21.875 28.875C21.2917 29.4583 21 30.1667 21 31C21 31.8333 21.2917 32.5417 21.875 33.125C22.4583 33.7083 23.1667 34 24 34ZM24 36C22.6167 36 21.4373 35.5123 20.462 34.537C19.4867 33.5617 18.9993 32.3827 19 31C19 29.6167 19.4877 28.4373 20.463 27.462C21.4383 26.4867 22.6173 25.9993 24 26C25 26 25.9127 26.271 26.738 26.813C27.5633 27.355 28.1757 28.084 28.575 29C29.5417 29 30.3543 29.3583 31.013 30.075C31.6717 30.7917 32.0007 31.65 32 32.65C31.9667 33.6 31.6123 34.396 30.937 35.038C30.2617 35.68 29.4493 36.0007 28.5 36H24ZM32 32.65C31.9167 32.3167 31.8333 31.9917 31.75 31.675C31.6667 31.3583 31.5833 31.0333 31.5 30.7C32.25 30.3833 32.8543 29.8917 33.313 29.225C33.7717 28.5583 34.0007 27.8167 34 27C34 25.9 33.6083 24.9583 32.825 24.175C32.0417 23.3917 31.1 23 30 23C29 23 28.125 23.325 27.375 23.975C26.625 24.625 26.1833 25.45 26.05 26.45C25.7167 26.3667 25.375 26.2917 25.025 26.225C24.675 26.1583 24.3333 26.0833 24 26C24.2333 24.5333 24.921 23.3333 26.063 22.4C27.205 21.4667 28.5173 21 30 21C31.6667 21 33.0833 21.5833 34.25 22.75C35.4167 23.9167 36 25.3333 36 27C36 28.2833 35.6333 29.4377 34.9 30.463C34.1667 31.4883 33.2 32.2173 32 32.65Z" fill="black"/>
<circle cx="75.5" cy="26.5" r="20.5" fill="black"/>
</svg>
