<svg width="31" height="26" viewBox="0 0 31 26" fill="none" xmlns="http://www.w3.org/2000/svg">
<path fill-rule="evenodd" clip-rule="evenodd" d="M14.1048 7.128C14.1048 3.1913 17.2704 0 21.1754 0C23.4682 0 25.2974 1.09188 26.523 2.67841C27.8192 2.41056 29.0619 1.92593 30.1996 1.24461C29.759 2.62645 28.8369 3.80064 27.6038 4.54988L27.6083 4.55672C28.7789 4.41414 29.922 4.09686 31 3.61529L30.9977 3.61985C30.2357 4.771 29.2793 5.78537 28.1758 6.61283C28.2346 7.0163 28.2663 7.41978 28.2663 7.82097C28.2663 16.2255 21.9148 26 10.2337 26C6.78937 26.003 3.41701 25.0059 0.519912 23.1278C0.38352 23.0396 0.267542 22.9228 0.17984 22.7854C0.0921387 22.648 0.0347633 22.4932 0.0116034 22.3315C-0.0115564 22.1698 4.06891e-05 22.005 0.0456086 21.8482C0.0911764 21.6914 0.16965 21.5463 0.275709 21.4228C0.376566 21.2537 0.523634 21.1176 0.69929 21.0306C0.874946 20.9437 1.07174 20.9097 1.26609 20.9327C3.33729 21.1788 5.40396 20.9235 7.2287 20.1212C6.32867 19.7203 5.52293 19.132 4.86435 18.395C4.20577 17.658 3.70925 16.7889 3.40738 15.8448C3.35156 15.6692 3.34374 15.4817 3.38472 15.302C3.42571 15.1222 3.51399 14.957 3.64028 14.8236C2.89718 14.1662 2.30195 13.3563 1.89445 12.4482C1.48695 11.5401 1.27657 10.5547 1.27739 9.55795V9.48045C1.27734 9.24198 1.35971 9.01094 1.51033 8.82706C1.66095 8.64318 1.87041 8.51795 2.10271 8.47291C1.59006 7.47557 1.32326 6.36842 1.32488 5.24513C1.32488 4.17833 1.33166 2.83342 2.07557 1.62073C2.15505 1.49225 2.26176 1.38311 2.38803 1.30114C2.51431 1.21916 2.65702 1.16638 2.80592 1.14659C3.02183 1.07794 3.25321 1.07622 3.4701 1.14166C3.68699 1.20709 3.8794 1.33666 4.02241 1.51359C6.54294 4.63945 10.148 6.68235 14.1071 7.2283V7.128H14.1048ZM10.2337 23.7205C8.50373 23.7218 6.78543 23.4345 5.14845 22.8702C7.11742 22.5428 8.97461 21.7265 10.5526 20.495C10.7179 20.3642 10.8391 20.185 10.8994 19.982C10.9596 19.779 10.9561 19.5622 10.8891 19.3613C10.8222 19.1605 10.6953 18.9854 10.5257 18.8603C10.3561 18.7351 10.1522 18.6659 9.94206 18.6623C9.18506 18.6485 8.44144 18.4587 7.76919 18.1076C7.09693 17.7565 6.51421 17.2536 6.06647 16.6381C6.49609 16.6039 6.91666 16.5287 7.32366 16.4192C7.54553 16.3595 7.74081 16.2257 7.87774 16.0399C8.01467 15.854 8.0852 15.6269 8.07786 15.3955C8.07053 15.1641 7.98575 14.942 7.83733 14.7653C7.6889 14.5887 7.48555 14.4678 7.26035 14.4224C6.40012 14.2467 5.60203 13.8426 4.94852 13.252C4.29502 12.6613 3.80982 11.9054 3.54305 11.0624C3.99528 11.1718 4.46785 11.2379 4.95173 11.2539C5.17286 11.2614 5.39039 11.196 5.57135 11.0677C5.75232 10.9394 5.88686 10.7551 5.9546 10.5428C6.02234 10.3304 6.01958 10.1016 5.94674 9.89099C5.8739 9.68038 5.73494 9.49944 5.55094 9.37559C4.87622 8.92244 4.32297 8.3083 3.94034 7.58772C3.55771 6.86715 3.35755 6.06246 3.35764 5.24513C3.35764 4.86218 3.36442 4.52253 3.38703 4.21252C6.55097 7.46762 10.8153 9.40143 15.3303 9.62861C15.5047 9.63755 15.6787 9.60567 15.8388 9.53545C15.9989 9.46524 16.1407 9.35861 16.253 9.22392C16.3654 9.08922 16.4453 8.93013 16.4865 8.7591C16.5276 8.58807 16.5289 8.40975 16.4903 8.23812C16.3242 7.52635 16.32 6.78593 16.4779 6.07228C16.6359 5.35863 16.9519 4.69023 17.4023 4.11711C17.8527 3.54399 18.4258 3.08099 19.0788 2.76276C19.7319 2.44454 20.4478 2.27933 21.1731 2.2795C23.9634 2.2795 26.0029 4.88497 26.0029 7.82325C26.0029 15.2453 20.4066 23.7205 10.2337 23.7205Z" fill="black" fill-opacity="0.4"/>
</svg>
